<svg width="46" height="46" viewBox="0 0 46 46" fill="none" xmlns="http://www.w3.org/2000/svg">
<circle cx="23" cy="23" r="23" fill="#2B4196"/>
<g clip-path="url(#clip0_25_10965)">
<path d="M18.2581 34C18.3122 33.8674 18.3577 33.7302 18.4211 33.6023C19.8678 30.6524 21.3165 27.7038 22.7638 24.7545C22.8159 24.6482 22.8628 24.5392 22.9314 24.3904C18.2707 24.3904 13.6489 24.3904 9 24.3904C9 22.2453 9 20.1324 9 18C18.3281 18 27.6535 18 37 18C37 20.1102 37 22.2143 37 24.3588C32.3485 24.3588 27.6964 24.3588 22.9749 24.3588C23.0515 24.5311 23.099 24.6461 23.1537 24.7578C24.6011 27.7071 26.0498 30.6551 27.4965 33.6043C27.5598 33.7335 27.6126 33.8674 27.67 33.9993C24.5331 34 21.3956 34 18.2581 34ZM35.7571 19.2765C27.2332 19.2765 18.7404 19.2765 10.2462 19.2765C10.2462 20.5543 10.2462 21.8092 10.2462 23.0662C18.7602 23.0662 27.2524 23.0662 35.7571 23.0662C35.7571 21.7958 35.7571 20.5482 35.7571 19.2765ZM22.9584 27.224C22.0527 29.0697 21.1753 30.8569 20.2854 32.669C22.0903 32.669 23.8451 32.669 25.6322 32.669C24.7383 30.8495 23.8629 29.0664 22.9584 27.224Z" fill="white"/>
</g>
<defs>
<clipPath id="clip0_25_10965">
<rect width="28" height="16" fill="white" transform="translate(9 18)"/>
</clipPath>
</defs>
</svg>
