<svg width="46" height="46" viewBox="0 0 46 46" fill="none" xmlns="http://www.w3.org/2000/svg">
<circle cx="23" cy="23" r="23" fill="#2B4196"/>
<g clip-path="url(#clip0_25_10952)">
<path d="M25.8514 33C23.9555 33 22.0603 33 20.1644 33C20.0488 32.9811 19.9332 32.9481 19.8167 32.9442C16.6212 32.8317 13.4463 32.5055 10.2832 32.0543C9.23782 31.9049 8.39202 31.2029 8.12038 30.1999C8.07682 30.0379 8.0396 29.8736 8 29.7101C8 24.9062 8 20.1031 8 15.2992C8.02693 15.1994 8.06177 15.1011 8.0792 14.9997C8.26451 13.9448 9.12616 13.1029 10.1961 12.9614C11.4981 12.7892 12.7984 12.5793 14.1075 12.4803C16.6378 12.2893 19.1705 12.099 21.7063 12.0259C26.2522 11.8938 30.7703 12.2806 35.2781 12.8694C37.3403 13.1382 38.0586 14.3929 37.9968 15.9494C37.9422 17.318 37.9857 18.6897 37.9857 20.0599C37.9857 23.1666 37.9889 26.2725 37.9842 29.3792C37.9818 30.8012 37.151 31.8711 35.8134 32.0307C33.257 32.3365 30.6934 32.5825 28.1307 32.8396C27.3728 32.9159 26.6109 32.9473 25.8514 33ZM9.30039 22.5008C9.30039 23.349 9.30039 24.1972 9.30039 25.0454C9.30039 26.5201 9.29247 27.994 9.30435 29.4688C9.31068 30.2722 9.71141 30.71 10.4891 30.8177C11.1005 30.9018 11.7119 30.9844 12.3233 31.0685C15.3881 31.4875 18.4688 31.7328 21.5614 31.7422C23.7963 31.7493 26.0375 31.7249 28.2661 31.5771C30.6237 31.4207 32.9695 31.0937 35.3216 30.8578C36.3915 30.7501 36.7265 30.1653 36.7226 29.2062C36.7036 24.7443 36.7139 20.2816 36.7139 15.8196C36.7139 15.6766 36.7155 15.5319 36.7036 15.3896C36.6481 14.7152 36.2419 14.2915 35.5632 14.2011C34.73 14.0902 33.8977 13.9778 33.0638 13.8717C30.1256 13.4983 27.1748 13.3057 24.2137 13.2609C19.6148 13.1909 15.0421 13.4888 10.4962 14.1924C9.68449 14.3182 9.30435 14.7474 9.30197 15.6129C9.29722 17.9075 9.30118 20.2038 9.30039 22.5008Z" fill="white"/>
<path d="M17.7167 28.6898C18.0184 28.6906 18.3209 28.6828 18.6226 28.6922C18.9996 28.704 19.2649 28.9508 19.2776 29.2841C19.2895 29.5883 19.0368 29.9091 18.7026 29.9217C18.0342 29.946 17.3634 29.9476 16.695 29.9185C16.3585 29.9036 16.1232 29.5797 16.1438 29.2668C16.1652 28.9414 16.4123 28.7142 16.7711 28.6906C16.7972 28.689 16.8233 28.689 16.8495 28.689C17.1393 28.6898 17.4284 28.6898 17.7167 28.6898Z" fill="white"/>
<path d="M28.3177 28.6906C28.6194 28.6906 28.9219 28.6827 29.2237 28.6921C29.6038 28.7039 29.8612 28.9468 29.8723 29.2864C29.8833 29.6142 29.6244 29.9161 29.2609 29.9271C28.6186 29.9476 27.9739 29.9483 27.3317 29.9248C26.9769 29.9114 26.7155 29.5844 26.7393 29.2652C26.7638 28.9429 27.0165 28.7055 27.3721 28.6929C27.6865 28.6827 28.0025 28.6914 28.3177 28.6906Z" fill="white"/>
<path d="M22.9971 28.6907C23.3123 28.6907 23.6275 28.6821 23.9427 28.6931C24.2991 28.7057 24.5501 28.9423 24.5739 29.2662C24.596 29.572 24.3537 29.9037 24.0203 29.9186C23.3519 29.9477 22.6811 29.9461 22.0127 29.9226C21.6785 29.9108 21.4282 29.5924 21.4393 29.2858C21.4512 28.9486 21.7125 28.7104 22.0911 28.6907C22.1172 28.6892 22.1434 28.6892 22.1695 28.6892C22.4451 28.6892 22.7207 28.6892 22.9971 28.6892C22.9971 28.6892 22.9971 28.6899 22.9971 28.6907Z" fill="white"/>
<path d="M33.6046 16.5714C33.6046 15.5321 33.139 15.0723 32.0888 15.0723C26.0367 15.0723 19.9838 15.0723 13.9317 15.0723C12.8705 15.0723 12.412 15.5219 12.4112 16.5643C12.4104 19.2779 12.4365 21.9916 12.3977 24.7052C12.3834 25.7075 13.0012 26.2397 13.946 26.2294C16.9586 26.198 19.9719 26.2177 22.9853 26.2177C26.0114 26.2177 29.0382 26.1972 32.0643 26.2294C33.0392 26.2397 33.6316 25.691 33.6181 24.7115C33.5809 21.9986 33.6054 19.285 33.6046 16.5714Z" fill="white"/>
</g>
<defs>
<clipPath id="clip0_25_10952">
<rect width="30" height="21" fill="white" transform="translate(8 12)"/>
</clipPath>
</defs>
</svg>
