<svg width="35" height="35" viewBox="0 0 35 35" fill="none" xmlns="http://www.w3.org/2000/svg">
<circle cx="17.5" cy="17.5" r="17.5" fill="#3E3E3E"/>
<path d="M25.6924 22.2464C25.6924 23.5871 25.6764 24.9279 25.6998 26.2682C25.7099 26.8424 25.3084 27.2256 24.7551 27.2225C22.0684 27.2073 19.3817 27.2077 16.6949 27.2217C16.0711 27.2249 15.7437 26.782 15.7456 26.2678C15.7561 23.5868 15.7503 20.9053 15.7507 18.2242C15.7507 17.6104 16.0875 17.2703 16.6957 17.2703C19.3824 17.2699 22.0692 17.2754 24.7559 17.2656C25.2827 17.2637 25.7068 17.6146 25.6982 18.2052C25.6791 19.5521 25.6924 20.8995 25.6924 22.2464Z" fill="white"/>
<path d="M17.3941 15.436C14.9476 15.436 12.5011 15.436 10.0546 15.436C9.46589 15.436 9.13842 15.1143 9.13764 14.53C9.13609 13.5395 9.13609 12.5489 9.13764 11.5584C9.13842 10.9815 9.46161 10.6535 10.0375 10.6535C14.9566 10.652 19.8752 10.652 24.7943 10.6535C25.3682 10.6535 25.6914 10.983 25.6922 11.5603C25.6938 12.5446 25.6934 13.5286 25.6922 14.5129C25.6914 15.1143 25.3694 15.4364 24.7725 15.4364C22.3132 15.436 19.8538 15.436 17.3941 15.436ZM10.8104 13.7615C15.2256 13.7615 19.6179 13.7615 24.0132 13.7615C24.0132 13.2761 24.0132 12.8025 24.0132 12.33C19.6046 12.33 15.2128 12.33 10.8104 12.33C10.8104 12.8107 10.8104 13.28 10.8104 13.7615Z" fill="white"/>
<path d="M9.13716 22.2376C9.13716 20.8973 9.15234 19.557 9.13054 18.2174C9.12042 17.5965 9.56937 17.2565 10.081 17.2658C11.0514 17.2837 12.0225 17.2705 12.9932 17.2713C13.5843 17.2717 13.9184 17.6055 13.9184 18.1964C13.9188 20.9028 13.9188 23.6087 13.9184 26.3151C13.9184 26.878 13.5921 27.2134 13.0333 27.2153C12.0303 27.2188 11.0272 27.2188 10.0238 27.2153C9.46346 27.2134 9.13833 26.8815 9.13794 26.3163C9.13599 24.9569 9.13716 23.5974 9.13716 22.2376ZM12.2405 25.5408C12.2405 23.3275 12.2405 21.1369 12.2405 18.9458C11.7561 18.9458 11.2865 18.9458 10.8119 18.9458C10.8119 21.1485 10.8119 23.3396 10.8119 25.5408C11.2928 25.5408 11.7616 25.5408 12.2405 25.5408Z" fill="white"/>
</svg>
