<svg width="46" height="46" viewBox="0 0 46 46" fill="none" xmlns="http://www.w3.org/2000/svg">
<circle cx="23" cy="23" r="23" fill="#2B4196"/>
<g clip-path="url(#clip0_25_10989)">
<path d="M33 27.8918C32.5777 28.3458 32.1487 28.7945 31.7344 29.2557C30.687 30.4207 29.6456 31.5916 28.6021 32.7606C28.5374 32.8332 28.478 32.9104 28.4033 33C26.8655 31.277 25.3578 29.588 23.8013 27.8441C25.1463 27.8441 26.4225 27.8441 27.7342 27.8441C27.7342 23.5457 27.7342 19.2833 27.7342 15C28.1852 15 28.6008 15 29.0538 15C29.0538 19.263 29.0538 23.5261 29.0538 27.8264C30.3934 27.8264 31.6964 27.8264 32.9993 27.8264C33 27.8486 33 27.8702 33 27.8918Z" fill="white"/>
<path d="M12 23.9531C12 23.5292 12 23.1296 12 22.7076C15.9288 22.7076 19.8457 22.7076 23.7886 22.7076C23.7886 23.1119 23.7886 23.5188 23.7886 23.9531C19.8757 23.9531 15.9509 23.9531 12 23.9531Z" fill="white"/>
<path d="M23.8008 18.8606C23.8008 19.2904 23.8008 19.6894 23.8008 20.1094C19.8692 20.1094 15.9524 20.1094 12.0122 20.1094C12.0122 19.7018 12.0122 19.2943 12.0122 18.8606C15.9284 18.8606 19.8532 18.8606 23.8008 18.8606Z" fill="white"/>
<path d="M23.7905 16.2598C19.857 16.2598 15.9415 16.2598 12.0066 16.2598C12.0066 15.8352 12.0066 15.4284 12.0066 15.0005C15.9321 15.0005 19.849 15.0005 23.7905 15.0005C23.7905 15.4055 23.7905 15.813 23.7905 16.2598Z" fill="white"/>
<path d="M12.0114 30.4211C15.5033 30.4211 18.9758 30.4211 22.4697 30.4211C22.4697 30.8385 22.4697 31.2466 22.4697 31.6816C18.9939 31.6816 15.5146 31.6816 12.0114 31.6816C12.0114 31.2728 12.0114 30.8679 12.0114 30.4211Z" fill="white"/>
<path d="M12.0009 27.8164C12.0009 27.3834 12.0009 26.9843 12.0009 26.5395C12.1203 26.5395 12.2264 26.5395 12.3331 26.5395C14.7262 26.5395 17.1193 26.5441 19.5117 26.5336C19.7952 26.5323 19.9147 26.5905 19.8873 26.8901C19.86 27.1897 19.8813 27.4933 19.8813 27.8164C17.2414 27.8164 14.6341 27.8164 12.0009 27.8164Z" fill="white"/>
</g>
<defs>
<clipPath id="clip0_25_10989">
<rect width="21" height="18" fill="white" transform="translate(33 33) rotate(-180)"/>
</clipPath>
</defs>
</svg>
