<svg width="35" height="35" viewBox="0 0 35 35" fill="none" xmlns="http://www.w3.org/2000/svg">
<circle cx="17.5" cy="17.5" r="17.5" fill="#3E3E3E"/>
<g clip-path="url(#clip0_25_11025)">
<path d="M19.38 24.348C18.1298 24.348 16.8801 24.348 15.6299 24.348C15.5536 24.3357 15.4774 24.3141 15.4006 24.3116C13.2934 24.2383 11.1998 24.0255 9.11399 23.7312C8.42464 23.6338 7.8669 23.176 7.68778 22.5218C7.65905 22.4162 7.63451 22.3091 7.6084 22.2024C7.6084 19.0695 7.6084 15.937 7.6084 12.804C7.62615 12.7389 7.64913 12.6748 7.66062 12.6087C7.78282 11.9207 8.35101 11.3716 9.05654 11.2793C9.91509 11.167 10.7726 11.0302 11.6358 10.9656C13.3044 10.841 14.9745 10.7169 16.6466 10.6692C19.6442 10.5831 22.6236 10.8353 25.5961 11.2193C26.956 11.3947 27.4297 12.2129 27.3889 13.228C27.3529 14.1206 27.3816 15.0152 27.3816 15.9088C27.3816 17.9349 27.3837 19.9605 27.3806 21.9866C27.379 22.914 26.8312 23.6118 25.9491 23.7158C24.2634 23.9153 22.5729 24.0757 20.883 24.2434C20.3832 24.2931 19.8808 24.3136 19.38 24.348ZM8.4659 17.5007C8.4659 18.0538 8.4659 18.607 8.4659 19.1602C8.4659 20.122 8.46068 21.0832 8.46851 22.045C8.47269 22.569 8.73694 22.8545 9.24977 22.9248C9.65293 22.9796 10.0561 23.0335 10.4593 23.0883C12.4803 23.3616 14.5118 23.5215 16.5511 23.5277C18.0248 23.5323 19.5027 23.5164 20.9723 23.42C22.527 23.318 24.0738 23.1047 25.6248 22.9509C26.3304 22.8807 26.5513 22.4993 26.5486 21.8738C26.5361 18.9638 26.5429 16.0534 26.5429 13.1434C26.5429 13.0501 26.5439 12.9558 26.5361 12.863C26.4996 12.4231 26.2317 12.1468 25.7841 12.0878C25.2347 12.0155 24.6859 11.9422 24.1359 11.873C22.1985 11.6295 20.2526 11.5039 18.3 11.4747C15.2674 11.429 12.2521 11.6233 9.25447 12.0822C8.71918 12.1642 8.46851 12.4441 8.46695 13.0086C8.46381 14.5051 8.46642 16.0026 8.4659 17.5007Z" fill="white"/>
<path d="M14.0155 21.5367C14.2145 21.5372 14.414 21.5321 14.6129 21.5382C14.8615 21.5459 15.0365 21.7069 15.0448 21.9243C15.0527 22.1227 14.8861 22.3318 14.6657 22.34C14.2249 22.3559 13.7826 22.357 13.3418 22.338C13.1199 22.3282 12.9648 22.117 12.9784 21.913C12.9925 21.7007 13.1554 21.5526 13.392 21.5372C13.4092 21.5362 13.4264 21.5362 13.4437 21.5362C13.6348 21.5367 13.8254 21.5367 14.0155 21.5367Z" fill="white"/>
<path d="M21.0061 21.5372C21.2051 21.5372 21.4046 21.532 21.6036 21.5382C21.8543 21.5459 22.024 21.7043 22.0313 21.9258C22.0386 22.1396 21.8678 22.3364 21.6281 22.3436C21.2046 22.3569 20.7795 22.3574 20.356 22.3421C20.122 22.3333 19.9497 22.1201 19.9653 21.9119C19.9815 21.7017 20.1481 21.5469 20.3826 21.5387C20.5899 21.532 20.7983 21.5377 21.0061 21.5372Z" fill="white"/>
<path d="M17.4977 21.5373C17.7055 21.5373 17.9134 21.5316 18.1212 21.5388C18.3562 21.547 18.5218 21.7013 18.5374 21.9125C18.5521 22.112 18.3923 22.3283 18.1724 22.3381C17.7316 22.357 17.2893 22.356 16.8485 22.3406C16.6282 22.3329 16.4631 22.1253 16.4704 21.9254C16.4783 21.7054 16.6506 21.5501 16.9002 21.5373C16.9175 21.5362 16.9347 21.5362 16.9519 21.5362C17.1337 21.5362 17.3154 21.5362 17.4977 21.5362C17.4977 21.5362 17.4977 21.5367 17.4977 21.5373Z" fill="white"/>
<path d="M24.4927 13.6339C24.4927 12.9562 24.1857 12.6562 23.4932 12.6562C19.5023 12.6562 15.5109 12.6562 11.52 12.6562C10.8202 12.6562 10.5179 12.9495 10.5173 13.6293C10.5168 15.3991 10.534 17.1688 10.5085 18.9386C10.4991 19.5923 10.9064 19.9393 11.5294 19.9327C13.516 19.9122 15.5031 19.925 17.4902 19.925C19.4856 19.925 21.4816 19.9117 23.477 19.9327C24.1199 19.9393 24.5105 19.5815 24.5016 18.9427C24.4771 17.1734 24.4933 15.4037 24.4927 13.6339Z" fill="white"/>
</g>
<defs>
<clipPath id="clip0_25_11025">
<rect width="19.7826" height="13.6957" fill="white" transform="translate(7.6084 10.6523)"/>
</clipPath>
</defs>
</svg>
