<svg width="46" height="46" viewBox="0 0 46 46" fill="none" xmlns="http://www.w3.org/2000/svg">
<circle cx="23" cy="23" r="23" fill="#2B4196"/>
<g clip-path="url(#clip0_25_10974)">
<path d="M12 19.1082C12.4223 18.6542 12.8513 18.2055 13.2656 17.7443C14.313 16.5793 15.3544 15.4084 16.3979 14.2394C16.4626 14.1668 16.522 14.0896 16.5967 14C18.1345 15.723 19.6422 17.412 21.1987 19.1559C19.8537 19.1559 18.5775 19.1559 17.2658 19.1559C17.2658 23.4543 17.2658 27.7167 17.2658 32C16.8148 32 16.3992 32 15.9462 32C15.9462 27.737 15.9462 23.4739 15.9462 19.1736C14.6066 19.1736 13.3036 19.1736 12.0007 19.1736C12 19.1514 12 19.1298 12 19.1082Z" fill="white"/>
<path d="M33 23.0469C33 23.4708 33 23.8704 33 24.2924C29.0712 24.2924 25.1543 24.2924 21.2114 24.2924C21.2114 23.8881 21.2114 23.4812 21.2114 23.0469C25.1243 23.0469 29.0491 23.0469 33 23.0469Z" fill="white"/>
<path d="M21.1992 28.1394C21.1992 27.7096 21.1992 27.3106 21.1992 26.8906C25.1308 26.8906 29.0476 26.8906 32.9878 26.8906C32.9878 27.2982 32.9878 27.7057 32.9878 28.1394C29.0716 28.1394 25.1468 28.1394 21.1992 28.1394Z" fill="white"/>
<path d="M21.2095 30.7402C25.143 30.7402 29.0585 30.7402 32.9934 30.7402C32.9934 31.1648 32.9934 31.5716 32.9934 31.9995C29.0679 31.9995 25.151 31.9995 21.2095 31.9995C21.2095 31.5945 21.2095 31.187 21.2095 30.7402Z" fill="white"/>
<path d="M32.9886 16.5789C29.4967 16.5789 26.0242 16.5789 22.5303 16.5789C22.5303 16.1615 22.5303 15.7534 22.5303 15.3184C26.0061 15.3184 29.4854 15.3184 32.9886 15.3184C32.9886 15.7272 32.9886 16.1321 32.9886 16.5789Z" fill="white"/>
<path d="M32.9991 19.1836C32.9991 19.6166 32.9991 20.0157 32.9991 20.4605C32.8797 20.4605 32.7736 20.4605 32.6669 20.4605C30.2738 20.4605 27.8807 20.4559 25.4883 20.4664C25.2048 20.4677 25.0853 20.4095 25.1127 20.1099C25.14 19.8103 25.1187 19.5067 25.1187 19.1836C27.7586 19.1836 30.3659 19.1836 32.9991 19.1836Z" fill="white"/>
</g>
<defs>
<clipPath id="clip0_25_10974">
<rect width="21" height="18" fill="white" transform="translate(12 14)"/>
</clipPath>
</defs>
</svg>
